<?xml version="1.0" ?>
<svg><rect x="0" y="0" width="340" height="340.0" style="fill:WHITE;"></rect>
<rect x="10" y="10" width="320" height="320.0" style="fill:YELLOW;"></rect>
<rect x="10" y="10" width="150" height="160.0" style="fill:GREEN;"></rect>
<text x="85" y="90" style="fill:WHITE;font-size:4px">4</text>
<rect x="10" y="170" width="6" height="48.0" style="fill:GREEN;"></rect>
<text x="13" y="194" style="fill:WHITE;font-size:4px">2</text>
<rect x="10" y="218" width="6" height="48.0" style="fill:GREEN;"></rect>
<text x="13" y="242" style="fill:WHITE;font-size:4px">2</text>
<rect x="10" y="266" width="6" height="48.0" style="fill:GREEN;"></rect>
<text x="13" y="290" style="fill:WHITE;font-size:4px">2</text>
<rect x="0" y="340" width="340" height="340.0" style="fill:WHITE;"></rect>
<rect x="10" y="350" width="320" height="320.0" style="fill:YELLOW;"></rect>
<rect x="10" y="350" width="6" height="48.0" style="fill:GREEN;"></rect>
<text x="13" y="374" style="fill:WHITE;font-size:4px">2</text>
<rect x="10" y="398" width="6" height="48.0" style="fill:GREEN;"></rect>
<text x="13" y="422" style="fill:WHITE;font-size:4px">2</text>
<rect x="10" y="446" width="6" height="48.0" style="fill:GREEN;"></rect>
<text x="13" y="470" style="fill:WHITE;font-size:4px">2</text>
<rect x="10" y="494" width="6" height="48.0" style="fill:GREEN;"></rect>
<text x="13" y="518" style="fill:WHITE;font-size:4px">2</text>
<rect x="10" y="542" width="6" height="48.0" style="fill:GREEN;"></rect>
<text x="13" y="566" style="fill:WHITE;font-size:4px">2</text>
<rect x="10" y="590" width="6" height="48.0" style="fill:GREEN;"></rect>
<text x="13" y="614" style="fill:WHITE;font-size:4px">2</text>
<rect x="0" y="680" width="340" height="340.0" style="fill:WHITE;"></rect>
<rect x="10" y="690" width="320" height="320.0" style="fill:YELLOW;"></rect>
<rect x="10" y="690" width="6" height="48.0" style="fill:GREEN;"></rect>
<text x="13" y="714" style="fill:WHITE;font-size:4px">2</text>
<rect x="10" y="738" width="9" height="31.0" style="fill:GREEN;"></rect>
<text x="14" y="753" style="fill:WHITE;font-size:4px">3</text>
<rect x="10" y="769" width="9" height="31.0" style="fill:GREEN;"></rect>
<text x="14" y="784" style="fill:WHITE;font-size:4px">3</text>
<rect x="10" y="800" width="9" height="31.0" style="fill:GREEN;"></rect>
<text x="14" y="815" style="fill:WHITE;font-size:4px">3</text>
<rect x="10" y="831" width="9" height="31.0" style="fill:GREEN;"></rect>
<text x="14" y="846" style="fill:WHITE;font-size:4px">3</text>
<rect x="10" y="862" width="9" height="31.0" style="fill:GREEN;"></rect>
<text x="14" y="877" style="fill:WHITE;font-size:4px">3</text>
<rect x="10" y="893" width="9" height="31.0" style="fill:GREEN;"></rect>
<text x="14" y="908" style="fill:WHITE;font-size:4px">3</text>
<rect x="10" y="924" width="9" height="31.0" style="fill:GREEN;"></rect>
<text x="14" y="939" style="fill:WHITE;font-size:4px">3</text>
<rect x="10" y="955" width="9" height="31.0" style="fill:GREEN;"></rect>
<text x="14" y="970" style="fill:WHITE;font-size:4px">3</text>
<rect x="0" y="1020" width="340" height="340.0" style="fill:WHITE;"></rect>
<rect x="10" y="1030" width="320" height="320.0" style="fill:YELLOW;"></rect>
<rect x="10" y="1030" width="9" height="31.0" style="fill:GREEN;"></rect>
<text x="14" y="1045" style="fill:WHITE;font-size:4px">3</text>
<rect x="10" y="1061" width="9" height="31.0" style="fill:GREEN;"></rect>
<text x="14" y="1076" style="fill:WHITE;font-size:4px">3</text>
<rect x="10" y="1092" width="9" height="31.0" style="fill:GREEN;"></rect>
<text x="14" y="1107" style="fill:WHITE;font-size:4px">3</text>
<rect x="10" y="1123" width="9" height="31.0" style="fill:GREEN;"></rect>
<text x="14" y="1138" style="fill:WHITE;font-size:4px">3</text>
<rect x="10" y="1154" width="9" height="31.0" style="fill:GREEN;"></rect>
<text x="14" y="1169" style="fill:WHITE;font-size:4px">3</text>
<rect x="10" y="1185" width="9" height="31.0" style="fill:GREEN;"></rect>
<text x="14" y="1200" style="fill:WHITE;font-size:4px">3</text>
<rect x="10" y="1216" width="9" height="31.0" style="fill:GREEN;"></rect>
<text x="14" y="1231" style="fill:WHITE;font-size:4px">3</text>
<rect x="10" y="1247" width="12" height="14.0" style="fill:GREEN;"></rect>
<text x="16" y="1254" style="fill:WHITE;font-size:4px">1</text>
<rect x="10" y="1261" width="12" height="14.0" style="fill:GREEN;"></rect>
<text x="16" y="1268" style="fill:WHITE;font-size:4px">1</text>
<rect x="10" y="1275" width="12" height="14.0" style="fill:GREEN;"></rect>
<text x="16" y="1282" style="fill:WHITE;font-size:4px">1</text>
<rect x="10" y="1289" width="12" height="14.0" style="fill:GREEN;"></rect>
<text x="16" y="1296" style="fill:WHITE;font-size:4px">1</text>
<rect x="10" y="1303" width="12" height="14.0" style="fill:GREEN;"></rect>
<text x="16" y="1310" style="fill:WHITE;font-size:4px">1</text>
</svg>
